<svg width="719" height="310" viewBox="0 0 719 310" fill="none" xmlns="http://www.w3.org/2000/svg">
<path d="M174.168 210.896C175.341 211.365 177.219 211.952 179.8 212.656C182.381 213.36 184.259 214.064 185.432 214.768C186.605 215.472 187.192 216.528 187.192 217.936C187.427 223.568 185.315 228.261 180.856 232.016C176.632 235.536 171.587 237.296 165.72 237.296C156.568 237.296 149.411 234.832 144.248 229.904C139.085 224.976 135.331 217.467 132.984 207.376C132.045 203.387 131.576 197.872 131.576 190.832C131.576 186.843 131.811 180.389 132.28 171.472C132.749 162.085 132.984 154.576 132.984 148.944C132.984 140.731 130.637 133.573 125.944 127.472C121.485 121.136 115.149 117.968 106.936 117.968C102.008 117.968 96.8453 119.493 91.448 122.544C86.0507 125.36 82.296 128.88 80.184 133.104C76.664 139.909 74.2 147.301 72.792 155.28C70.2107 169.36 68.92 184.027 68.92 199.28C68.92 206.555 69.0373 212.187 69.272 216.176C69.272 217.115 69.272 218.992 69.272 221.808C69.5067 224.389 69.272 226.853 68.568 229.2C68.0987 231.312 67.16 233.307 65.752 235.184C64.5787 236.357 62.7013 237.296 60.12 238C57.7733 238.939 55.544 239.408 53.432 239.408C50.1467 239.408 46.04 238 41.112 235.184C36.184 232.368 33.368 229.2 32.664 225.68L32.312 219.696C32.312 217.584 32.5467 215.12 33.016 212.304C35.832 195.877 37.24 181.563 37.24 169.36C37.24 163.963 37.1227 159.739 36.888 156.688L36.536 140.144C36.536 134.512 35.128 129.115 32.312 123.952C29.496 118.555 26.2107 115.856 22.456 115.856C21.2827 115.856 19.64 116.325 17.528 117.264C15.416 117.968 13.656 118.32 12.248 118.32C9.90133 118.32 7.32 117.147 4.504 114.8C1.92267 112.453 0.632 109.989 0.632 107.408C0.632 102.48 2.27467 98.4907 5.56 95.44C9.08 92.624 12.4827 90.3947 15.768 88.752C19.288 87.1093 23.2773 86.288 27.736 86.288C31.4907 86.288 34.5413 86.64 36.888 87.344C39.2347 88.048 42.4027 89.5733 46.392 91.92C48.504 93.0933 50.968 95.6747 53.784 99.664C56.6 103.653 58.9467 109.285 60.824 116.56C66.9253 105.296 74.4347 97.4347 83.352 92.976C92.504 88.2827 104.12 85.936 118.2 85.936C123.597 85.936 129.347 87.696 135.448 91.216C141.784 94.736 147.181 98.8427 151.64 103.536C155.864 108.699 159.384 115.152 162.2 122.896C165.016 130.405 166.424 137.211 166.424 143.312C166.424 146.832 166.189 152.581 165.72 160.56C165.016 166.896 164.664 173.584 164.664 180.624C164.664 197.051 167.832 207.141 174.168 210.896ZM230.639 12.016C238.853 12.72 246.01 14.9493 252.111 18.704C258.213 22.224 261.263 27.6213 261.263 34.896C261.263 40.2933 258.682 44.6347 253.519 47.92C248.591 50.9707 242.607 52.496 235.567 52.496C228.762 52.496 224.069 50.736 221.487 47.216C218.906 43.696 217.615 40.0587 217.615 36.304C217.615 29.264 218.319 23.3973 219.727 18.704C221.37 14.0107 225.007 11.7813 230.639 12.016ZM258.799 167.952V178.16C258.799 187.312 259.034 195.995 259.503 204.208C260.207 212.187 261.029 220.283 261.967 228.496C261.733 230.843 259.973 233.307 256.687 235.888C253.402 238.235 250.469 239.408 247.887 239.408C243.429 239.408 238.853 238.587 234.159 236.944C229.701 235.067 227.002 232.837 226.063 230.256C224.655 222.747 223.951 216.059 223.951 210.192C223.951 190.949 223.365 169.36 222.191 145.424C221.253 124.304 220.783 109.52 220.783 101.072C220.783 96.848 222.895 93.2107 227.119 90.16C231.343 87.1093 235.802 85.584 240.495 85.584C247.301 85.584 251.994 87.1093 254.575 90.16C257.391 93.2107 258.799 98.0213 258.799 104.592V167.952ZM342.174 183.44C342.174 192.357 343.464 199.28 346.046 204.208C348.862 208.901 352.382 211.248 356.606 211.248C358.952 211.248 361.182 211.131 363.294 210.896C365.406 210.427 367.518 210.192 369.63 210.192C371.976 210.192 373.971 211.365 375.614 213.712C377.491 216.059 378.43 218.64 378.43 221.456C378.43 227.088 375.731 231.547 370.334 234.832C365.171 237.883 358.131 239.408 349.214 239.408C342.878 239.408 336.424 237.531 329.854 233.776C323.518 229.787 318.238 223.685 314.014 215.472C309.79 207.024 307.678 196.581 307.678 184.144C307.678 157.392 308.147 134.747 309.086 116.208C310.259 94.1493 310.846 66.3413 310.846 32.784C310.846 22.224 311.432 14.832 312.606 10.608C314.014 7.32266 316.243 4.85865 319.294 3.21598C322.579 1.33866 325.982 0.399996 329.502 0.399996C333.022 0.399996 336.072 0.986662 338.654 2.15999C341.47 3.33333 343.347 5.21066 344.286 7.79198C345.224 10.608 345.811 13.424 346.046 16.24C346.515 18.8213 346.75 22.576 346.75 27.504C346.75 37.1253 346.398 46.3947 345.694 55.312C345.224 66.1067 344.99 73.968 344.99 78.896C343.112 120.197 342.174 155.045 342.174 183.44ZM536.197 239.408C528.219 239.408 522.117 238.235 517.893 235.888C513.669 233.307 509.093 228.613 504.165 221.808C498.064 227.205 488.912 231.547 476.709 234.832C464.741 238.117 454.416 239.76 445.733 239.76C431.419 239.76 419.803 235.888 410.885 228.144C402.203 220.165 397.861 208.549 397.861 193.296C397.861 186.725 399.621 180.741 403.141 175.344C406.896 169.712 411.707 164.784 417.573 160.56C424.144 156.101 431.888 152.581 440.805 150C449.957 147.419 458.288 146.128 465.797 146.128C478.469 146.128 489.733 147.301 499.589 149.648V149.296C499.589 136.624 496.421 127.941 490.085 123.248C483.984 118.32 474.128 115.856 460.517 115.856C451.835 115.856 444.325 119.728 437.989 127.472C435.643 130.523 430.715 132.048 423.205 132.048C419.451 132.048 416.635 130.523 414.757 127.472C413.115 124.187 412.293 120.901 412.293 117.616C412.293 110.811 415.109 104.944 420.741 100.016C426.608 95.088 433.648 91.4507 441.861 89.104C450.075 86.5227 457.701 85.232 464.741 85.232C471.547 85.232 479.643 86.64 489.029 89.456C498.416 92.272 506.043 96.0267 511.909 100.72C518.949 106.821 524.347 113.979 528.101 122.192C532.091 130.171 534.085 138.971 534.085 148.592C534.085 151.643 533.851 156.219 533.381 162.32C532.912 169.36 532.677 175.109 532.677 179.568C532.677 181.68 532.443 184.379 531.973 187.664C531.504 191.888 531.269 195.408 531.269 198.224C531.269 201.275 532.208 204.208 534.085 207.024C535.963 209.84 538.544 212.187 541.829 214.064C544.88 215.707 546.875 217.467 547.813 219.344C548.752 221.221 549.221 223.333 549.221 225.68C549.221 228.027 547.696 230.96 544.645 234.48C541.829 237.765 539.013 239.408 536.197 239.408ZM465.797 172.176C456.645 172.176 448.549 173.936 441.509 177.456C434.469 180.976 430.949 187.195 430.949 196.112C430.949 200.571 432.475 204.325 435.525 207.376C438.811 210.427 442.331 211.952 446.085 211.952C456.176 211.952 464.624 210.896 471.429 208.784C478.235 206.672 486.448 202.8 496.069 197.168C497.243 193.413 497.947 188.133 498.181 181.328C498.181 178.747 498.299 176.752 498.533 175.344C485.861 173.232 474.949 172.176 465.797 172.176ZM615.463 309.808C606.781 309.808 599.389 308.283 593.287 305.232C587.186 302.416 582.61 298.896 579.559 294.672C576.743 290.683 575.335 287.163 575.335 284.112C575.335 279.888 576.861 276.133 579.911 272.848C582.962 269.797 586.365 268.272 590.119 268.272C592.231 268.272 594.226 268.976 596.103 270.384C598.215 271.792 599.506 272.613 599.975 272.848C601.149 273.787 602.674 275.195 604.551 277.072C606.429 279.184 608.306 280.24 610.183 280.24C615.581 280.24 619.922 276.837 623.207 270.032C626.493 263.227 629.661 252.197 632.711 236.944C617.223 211.365 602.557 185.317 588.711 158.8C574.866 132.283 567.943 114.331 567.943 104.944C567.943 99.0773 570.055 94.736 574.279 91.92C578.503 89.104 583.314 87.696 588.711 87.696C592.701 87.696 595.869 88.5173 598.215 90.16C600.562 91.568 602.439 94.2667 603.847 98.256C610.418 118.203 617.106 136.037 623.911 151.76C630.717 167.248 638.578 182.853 647.495 198.576C651.719 189.189 656.765 173.819 662.631 152.464C666.151 140.027 669.202 129.936 671.783 122.192C674.365 114.213 677.298 106.939 680.583 100.368C682.695 96.144 685.277 92.7413 688.327 90.16C691.613 87.5787 695.133 86.288 698.887 86.288C703.111 86.288 707.453 87.8133 711.911 90.864C716.605 93.68 718.951 97.0827 718.951 101.072C718.951 102.245 718.13 105.061 716.487 109.52C707.335 129.936 699.239 149.648 692.199 168.656C685.159 187.429 678.589 208.08 672.487 230.608C668.733 242.576 664.743 254.192 660.519 265.456C656.295 276.955 653.362 284.112 651.719 286.928C646.791 293.499 641.511 298.896 635.879 303.12C630.247 307.579 623.442 309.808 615.463 309.808Z" fill="#00BDFF"/>
</svg>
