<svg width="334" height="382" viewBox="0 0 334 382" fill="none" xmlns="http://www.w3.org/2000/svg">
<path d="M246.168 266.896C247.341 267.365 249.219 267.952 251.8 268.656C254.381 269.36 256.259 270.064 257.432 270.768C258.605 271.472 259.192 272.528 259.192 273.936C259.427 279.568 257.315 284.261 252.856 288.016C248.632 291.536 243.587 293.296 237.72 293.296C228.568 293.296 221.411 290.832 216.248 285.904C211.085 280.976 207.331 273.467 204.984 263.376C204.045 259.387 203.576 253.872 203.576 246.832C203.576 242.843 203.811 236.389 204.28 227.472C204.749 218.085 204.984 210.576 204.984 204.944C204.984 196.731 202.637 189.573 197.944 183.472C193.485 177.136 187.149 173.968 178.936 173.968C174.008 173.968 168.845 175.493 163.448 178.544C158.051 181.36 154.296 184.88 152.184 189.104C148.664 195.909 146.2 203.301 144.792 211.28C142.211 225.36 140.92 240.027 140.92 255.28C140.92 262.555 141.037 268.187 141.272 272.176C141.272 273.115 141.272 274.992 141.272 277.808C141.507 280.389 141.272 282.853 140.568 285.2C140.099 287.312 139.16 289.307 137.752 291.184C136.579 292.357 134.701 293.296 132.12 294C129.773 294.939 127.544 295.408 125.432 295.408C122.147 295.408 118.04 294 113.112 291.184C108.184 288.368 105.368 285.2 104.664 281.68L104.312 275.696C104.312 273.584 104.547 271.12 105.016 268.304C107.832 251.877 109.24 237.563 109.24 225.36C109.24 219.963 109.123 215.739 108.888 212.688L108.536 196.144C108.536 190.512 107.128 185.115 104.312 179.952C101.496 174.555 98.2107 171.856 94.456 171.856C93.2827 171.856 91.64 172.325 89.528 173.264C87.416 173.968 85.656 174.32 84.248 174.32C81.9013 174.32 79.32 173.147 76.504 170.8C73.9227 168.453 72.632 165.989 72.632 163.408C72.632 158.48 74.2747 154.491 77.56 151.44C81.08 148.624 84.4827 146.395 87.768 144.752C91.288 143.109 95.2773 142.288 99.736 142.288C103.491 142.288 106.541 142.64 108.888 143.344C111.235 144.048 114.403 145.573 118.392 147.92C120.504 149.093 122.968 151.675 125.784 155.664C128.6 159.653 130.947 165.285 132.824 172.56C138.925 161.296 146.435 153.435 155.352 148.976C164.504 144.283 176.12 141.936 190.2 141.936C195.597 141.936 201.347 143.696 207.448 147.216C213.784 150.736 219.181 154.843 223.64 159.536C227.864 164.699 231.384 171.152 234.2 178.896C237.016 186.405 238.424 193.211 238.424 199.312C238.424 202.832 238.189 208.581 237.72 216.56C237.016 222.896 236.664 229.584 236.664 236.624C236.664 253.051 239.832 263.141 246.168 266.896Z" fill="#00BDFF"/>
<circle cx="167" cy="203" r="155" stroke="#00BDFF" stroke-width="24"/>
</svg>
